<svg xmlns="http://www.w3.org/2000/svg" width="9.95" height="11.827" viewBox="0 0 9.95 11.827">
  <g id="book-of-black-cover-closed" transform="translate(-36.436)">
    <path id="Path_11" data-name="Path 11" d="M37.942,9.441H46a.307.307,0,0,0,.072-.009h.005a.312.312,0,0,0,.312-.312V.312A.312.312,0,0,0,46.074,0H37.942a1.506,1.506,0,0,0-1.5,1.5.318.318,0,0,0,0,.032c0,.766-.011,7.806,0,8.732,0,.018,0,.036,0,.054a1.505,1.505,0,0,0,1.41,1.5.309.309,0,0,0,.048,0h8.18a.312.312,0,0,0,.312-.312V10.342a.312.312,0,1,0-.623,0V11.2H37.942a.881.881,0,0,1-.879-.845c0-.008,0-.016,0-.025s0-.035,0-.063A.882.882,0,0,1,37.942,9.441ZM38.154,1.5a.312.312,0,0,1,.623,0V7.836a.312.312,0,0,1-.623,0Z" transform="translate(0 0)" fill="#fff"/>
  </g>
</svg>
