<svg xmlns="http://www.w3.org/2000/svg" width="11.537" height="12.586" viewBox="0 0 11.537 12.586">
  <g id="copy" transform="translate(-1)">
    <path id="Path_12" data-name="Path 12" d="M14.915,1.442A1.442,1.442,0,0,0,13.473,0H7.442A1.442,1.442,0,0,0,6,1.442v7.08A1.442,1.442,0,0,0,7.442,9.964h6.031a1.442,1.442,0,0,0,1.442-1.442ZM12.424,7.6H8.491a.393.393,0,0,1,0-.787h3.933a.393.393,0,0,1,0,.787Zm0-1.573H8.491a.393.393,0,0,1,0-.787h3.933a.393.393,0,0,1,0,.787Zm0-1.573H8.491a.393.393,0,0,1,0-.787h3.933a.393.393,0,0,1,0,.787Z" transform="translate(-2.378)" fill="#fff"/>
    <path id="Path_13" data-name="Path 13" d="M5.064,11.939A2.231,2.231,0,0,1,2.835,9.711V2.631c0-.045.01-.087.013-.131H2.442A1.443,1.443,0,0,0,1,3.942v8.391a1.443,1.443,0,0,0,1.442,1.442H8.735a1.443,1.443,0,0,0,1.442-1.442v-.393Z" transform="translate(0 -1.189)" fill="#fff"/>
  </g>
</svg>
