<svg xmlns="http://www.w3.org/2000/svg" width="9.454" height="13.374" viewBox="0 0 9.454 13.374">
  <g id="question-mark" transform="translate(-142.61 0)">
    <path id="Path_8" data-name="Path 8" d="M396.761,788.2h-.646a.825.825,0,0,0-.825.825v.892a.825.825,0,0,0,.825.825h.646a.825.825,0,0,0,.825-.825v-.892A.824.824,0,0,0,396.761,788.2Z" transform="translate(-249.208 -777.367)" fill="#fff"/>
    <path id="Path_9" data-name="Path 9" d="M143,3.928l1.192.148a.825.825,0,0,0,.873-.526,2.542,2.542,0,0,1,.717-1.062,2.431,2.431,0,0,1,1.62-.55,2.325,2.325,0,0,1,1.6.526,1.633,1.633,0,0,1,.592,1.266,1.575,1.575,0,0,1-.334.973,11.026,11.026,0,0,1-1.329,1.181,5.6,5.6,0,0,0-1.483,1.623,3.756,3.756,0,0,0-.363,1.585.825.825,0,0,0,.825.859h.673A.826.826,0,0,0,148.4,9.2a2.082,2.082,0,0,1,.155-.7,3.872,3.872,0,0,1,1-1.073,10.373,10.373,0,0,0,2.031-2.038,2.918,2.918,0,0,0,.476-1.587,3.455,3.455,0,0,0-1.292-2.658A5.059,5.059,0,0,0,147.295,0a4.882,4.882,0,0,0-3.355,1.127A3.887,3.887,0,0,0,142.618,3.4.444.444,0,0,0,143,3.928Z" transform="translate(0)" fill="#fff"/>
  </g>
</svg>
