<svg xmlns="http://www.w3.org/2000/svg" width="14.124" height="13.374" viewBox="0 0 14.124 13.374">
  <g id="Layer_2" data-name="Layer 2" transform="translate(2 -52.804)">
    <path id="Path_1" data-name="Path 1" d="M14.281,6.529a1.846,1.846,0,0,1-1.455-2.5.866.866,0,0,0-.259-.975,6.944,6.944,0,0,0-2.072-1.2.871.871,0,0,0-.984.273,1.841,1.841,0,0,1-2.9,0,.871.871,0,0,0-.984-.273A6.977,6.977,0,0,0,3.7,2.942a.876.876,0,0,0-.273,1,1.836,1.836,0,0,1-1.53,2.524.871.871,0,0,0-.763.7A6.657,6.657,0,0,0,1,8.488a6.742,6.742,0,0,0,.089,1.106.871.871,0,0,0,.767.73,1.836,1.836,0,0,1,1.5,2.594.857.857,0,0,0,.24,1.026,7,7,0,0,0,2.053,1.182.942.942,0,0,0,.3.052.866.866,0,0,0,.706-.367,1.822,1.822,0,0,1,1.507-.791,1.846,1.846,0,0,1,1.478.744.866.866,0,0,0,1.017.287,7.062,7.062,0,0,0,1.883-1.125.871.871,0,0,0,.254-.993,1.836,1.836,0,0,1,1.474-2.538A.871.871,0,0,0,15,9.679a6.827,6.827,0,0,0,.122-1.191,6.76,6.76,0,0,0-.118-1.258.862.862,0,0,0-.725-.7ZM10.416,8.488A2.354,2.354,0,1,1,8.062,6.134a2.354,2.354,0,0,1,2.354,2.354Z" transform="translate(-3 51)" fill="#fff"/>
  </g>
</svg>
