<svg xmlns="http://www.w3.org/2000/svg" width="9.479" height="8.498" viewBox="0 0 9.479 8.498">
  <g id="cute-skull_1_" data-name="cute-skull (1)" transform="translate(0 -13.652)">
    <path id="Path_10" data-name="Path 10" d="M9.428,17.468a4.272,4.272,0,0,0-1.5-2.684,4.718,4.718,0,0,0-3.193-1.132A4.75,4.75,0,0,0,1.54,14.771a4.269,4.269,0,0,0-1.489,2.7A2.712,2.712,0,0,0,0,17.977a2.754,2.754,0,0,0,.7,1.87,4.021,4.021,0,0,0,1.972,1.17v.192a.811.811,0,0,0,.242.6.907.907,0,0,0,.6.267.742.742,0,0,0,.547-.127,1.036,1.036,0,0,0,.624.2.984.984,0,0,0,.585-.191.74.74,0,0,0,.522.114.981.981,0,0,0,.6-.273.793.793,0,0,0,.242-.592v-.14a4.165,4.165,0,0,0,2.125-1.2,2.783,2.783,0,0,0,.674-2.4ZM3.639,18.7a1.175,1.175,0,0,1-1.832,0,1.668,1.668,0,0,1,0-2.124,1.176,1.176,0,0,1,1.832,0,1.667,1.667,0,0,1,0,2.124Zm1.107,1.686a.616.616,0,0,1-.471-.163.367.367,0,0,1-.089-.252.783.783,0,0,1,.184-.478.5.5,0,0,1,.363-.239c.119,0,.231.088.337.265a.979.979,0,0,1,.159.5Q5.23,20.382,4.746,20.382ZM7.551,18.7a1.167,1.167,0,0,1-.923.439,1.154,1.154,0,0,1-.909-.439,1.689,1.689,0,0,1,0-2.124,1.156,1.156,0,0,1,.909-.439,1.168,1.168,0,0,1,.923.439,1.69,1.69,0,0,1,0,2.124Z" transform="translate(0 0)" fill="#fff"/>
  </g>
</svg>
