<svg xmlns="http://www.w3.org/2000/svg" width="13.376" height="13.373" viewBox="0 0 13.376 13.373">
  <g id="statistics" transform="translate(0 -0.05)">
    <g id="Group_2" data-name="Group 2" transform="translate(0 5.303)">
      <g id="Group_1" data-name="Group 1">
        <path id="Path_2" data-name="Path 2" d="M3.344,187.75H.479a.48.48,0,0,0-.479.479v7.164a.478.478,0,0,0,.479.479H3.344a.478.478,0,0,0,.479-.479v-7.164A.478.478,0,0,0,3.344,187.75Z" transform="translate(0 -187.75)" fill="#fff"/>
      </g>
    </g>
    <g id="Group_4" data-name="Group 4" transform="translate(4.777 0.05)">
      <g id="Group_3" data-name="Group 3" transform="translate(0 0)">
        <path id="Path_3" data-name="Path 3" d="M174.044.05h-2.866a.478.478,0,0,0-.479.476V12.945a.478.478,0,0,0,.479.479h2.866a.478.478,0,0,0,.479-.479V.529A.478.478,0,0,0,174.044.05Z" transform="translate(-170.7 -0.05)" fill="#fff"/>
      </g>
    </g>
    <g id="Group_6" data-name="Group 6" transform="translate(9.554 3.87)">
      <g id="Group_5" data-name="Group 5">
        <path id="Path_4" data-name="Path 4" d="M344.744,136.55h-2.866a.477.477,0,0,0-.479.479v8.6a.478.478,0,0,0,.479.479h2.866a.478.478,0,0,0,.479-.479v-8.6A.478.478,0,0,0,344.744,136.55Z" transform="translate(-341.4 -136.55)" fill="#fff"/>
      </g>
    </g>
  </g>
</svg>
