<svg id="delete_backspace" xmlns="http://www.w3.org/2000/svg" width="18.15" height="12.7" viewBox="0 0 18.15 12.7">
  <g id="Group_44" data-name="Group 44">
    <path id="Path_6" data-name="Path 6" d="M18.331,5H8.353a3.212,3.212,0,0,0-2.188.974L2.48,10.069a1.936,1.936,0,0,0,0,2.562l3.685,4.095a3.212,3.212,0,0,0,2.188.974h9.978a1.816,1.816,0,0,0,1.814-1.814V6.814A1.817,1.817,0,0,0,18.331,5Zm0,10.885H8.353a1.482,1.482,0,0,1-.84-.374L3.828,11.417a.136.136,0,0,1,0-.134L7.514,7.188a1.48,1.48,0,0,1,.839-.374h9.978Z" transform="translate(-1.996 -5)" fill="#fff"/>
    <path id="Path_7" data-name="Path 7" d="M11.293,14.624a.985.985,0,0,0,1.393,0l1.273-1.274,1.274,1.274a.986.986,0,1,0,1.394-1.393l-1.274-1.274,1.274-1.274a.985.985,0,1,0-1.393-1.393L13.96,10.563,12.687,9.289a.985.985,0,1,0-1.393,1.393l1.273,1.274-1.274,1.274A.986.986,0,0,0,11.293,14.624Z" transform="translate(-3.135 -5.607)" fill="#fff"/>
  </g>
</svg>
